HIERARCHY
ROOT hip
{
  OFFSET 0 0 0
  CHANNELS 6 Xposition Yposition Zposition Zrotation Yrotation Xrotation
  JOINT abdomen
  {
    OFFSET 0 20.6881 -0.73152
    CHANNELS 3 Zrotation Xrotation Yrotation
    JOINT chest
    {
      OFFSET 0 11.7043 -0.48768
      CHANNELS 3 Zrotation Xrotation Yrotation
      JOINT neck
      {
        OFFSET 0 22.1894 -2.19456
        CHANNELS 3 Zrotation Xrotation Yrotation
        JOINT head
        {
          OFFSET -0.24384 7.07133 1.2192
          CHANNELS 3 Zrotation Xrotation Yrotation
          JOINT leftEye
          {
            OFFSET 4.14528 8.04674 8.04672
            CHANNELS 3 Zrotation Xrotation Yrotation
            End Site
            {
              OFFSET 1 0 0
            }
          }
          JOINT rightEye
          {
            OFFSET -3.6576 8.04674 8.04672
            CHANNELS 3 Zrotation Xrotation Yrotation
            End Site
            {
              OFFSET 1 0 0
            }
          }
        }
      }
      JOINT rCollar
      {
        OFFSET -2.68224 19.2634 -4.8768
        CHANNELS 3 Zrotation Xrotation Yrotation
        JOINT rShldr
        {
          OFFSET -8.77824 -1.95073 1.46304
          CHANNELS 3 Zrotation Xrotation Yrotation
          JOINT rForeArm
          {
            OFFSET -28.1742 -1.7115 0.48768
            CHANNELS 3 Zrotation Xrotation Yrotation
            JOINT rHand
            {
              OFFSET -22.5879 0.773209 7.07136
              CHANNELS 3 Zrotation Xrotation Yrotation
              JOINT rThumb1
              {
                OFFSET -1.2192 -0.487915 3.41376
                CHANNELS 3 Zrotation Xrotation Yrotation
                JOINT rThumb2
                {
                  OFFSET -3.37035 -0.52449 3.41376
                  CHANNELS 3 Zrotation Xrotation Yrotation
                  End Site
                  {
                    OFFSET -1.78271 -1.18214 1.43049
                  }
                }
              }
              JOINT rIndex1
              {
                OFFSET -7.75947 0.938293 5.60832
                CHANNELS 3 Zrotation Xrotation Yrotation
                JOINT rIndex2
                {
                  OFFSET -2.54057 -0.884171 1.56538
                  CHANNELS 3 Zrotation Xrotation Yrotation
                  End Site
                  {
                    OFFSET -1.62519 -0.234802 1.16502
                  }
                }
              }
              JOINT rMid1
              {
                OFFSET -8.24714 1.18213 3.41376
                CHANNELS 3 Zrotation Xrotation Yrotation
                JOINT rMid2
                {
                  OFFSET -3.10165 -0.590103 1.0647
                  CHANNELS 3 Zrotation Xrotation Yrotation
                  End Site
                  {
                    OFFSET -2.48547 -0.328903 0.83742
                  }
                }
              }
              JOINT rRing1
              {
                OFFSET -8.82822 0.546677 1.51678
                CHANNELS 3 Zrotation Xrotation Yrotation
                JOINT rRing2
                {
                  OFFSET -2.60934 -0.819778 -0.0198488
                  CHANNELS 3 Zrotation Xrotation Yrotation
                  End Site
                  {
                    OFFSET -2.33842 -0.294052 0.168128
                  }
                }
              }
              JOINT rPinky1
              {
                OFFSET -8.27202 -0.0477905 -0.4584
                CHANNELS 3 Zrotation Xrotation Yrotation
                JOINT rPinky2
                {
                  OFFSET -1.82734 -0.647385 -0.700984
                  CHANNELS 3 Zrotation Xrotation Yrotation
                  End Site
                  {
                    OFFSET -1.69225 -0.51767 -0.607171
                  }
                }
              }
            }
          }
        }
      }
      JOINT lCollar
      {
        OFFSET 2.68224 19.2634 -4.8768
        CHANNELS 3 Zrotation Xrotation Yrotation
        JOINT lShldr
        {
          OFFSET 8.77824 -1.95073 1.46304
          CHANNELS 3 Zrotation Xrotation Yrotation
          JOINT lForeArm
          {
            OFFSET 28.1742 -1.7115 0.48768
            CHANNELS 3 Zrotation Xrotation Yrotation
            JOINT lHand
            {
              OFFSET 22.5879 0.773209 7.07136
              CHANNELS 3 Zrotation Xrotation Yrotation
              JOINT lThumb1
              {
                OFFSET 1.2192 -0.487915 3.41376
                CHANNELS 3 Zrotation Xrotation Yrotation
                JOINT lThumb2
                {
                  OFFSET 3.37035 -0.52449 3.41376
                  CHANNELS 3 Zrotation Xrotation Yrotation
                  End Site
                  {
                    OFFSET 1.78271 -1.18214 1.43049
                  }
                }
              }
              JOINT lIndex1
              {
                OFFSET 7.75947 0.938293 5.60832
                CHANNELS 3 Zrotation Xrotation Yrotation
                JOINT lIndex2
                {
                  OFFSET 2.54057 -0.884171 1.56538
                  CHANNELS 3 Zrotation Xrotation Yrotation
                  End Site
                  {
                    OFFSET 1.62519 -0.234802 1.16502
                  }
                }
              }
              JOINT lMid1
              {
                OFFSET 8.24714 1.18213 3.41376
                CHANNELS 3 Zrotation Xrotation Yrotation
                JOINT lMid2
                {
                  OFFSET 3.10165 -0.590103 1.0647
                  CHANNELS 3 Zrotation Xrotation Yrotation
                  End Site
                  {
                    OFFSET 2.48547 -0.328903 0.83742
                  }
                }
              }
              JOINT lRing1
              {
                OFFSET 8.82822 0.546677 1.51678
                CHANNELS 3 Zrotation Xrotation Yrotation
                JOINT lRing2
                {
                  OFFSET 2.60934 -0.819778 -0.0198488
                  CHANNELS 3 Zrotation Xrotation Yrotation
                  End Site
                  {
                    OFFSET 2.33842 -0.294052 0.168128
                  }
                }
              }
              JOINT lPinky1
              {
                OFFSET 8.27202 -0.0477905 -0.4584
                CHANNELS 3 Zrotation Xrotation Yrotation
                JOINT lPinky2
                {
                  OFFSET 1.82734 -0.647385 -0.700984
                  CHANNELS 3 Zrotation Xrotation Yrotation
                  End Site
                  {
                    OFFSET 1.69225 -0.51767 -0.607171
                  }
                }
              }
            }
          }
        }
      }
    }
  }
  JOINT rButtock
  {
    OFFSET -8.77824 4.35084 1.2192
    CHANNELS 3 Zrotation Xrotation Yrotation
    JOINT rThigh
    {
      OFFSET 0 -1.70687 -2.19456
      CHANNELS 3 Zrotation Xrotation Yrotation
      JOINT rShin
      {
        OFFSET 0 -36.8199 0.73152
        CHANNELS 3 Zrotation Xrotation Yrotation
        JOINT rFoot
        {
          OFFSET 0.73152 -45.1104 -5.12064
          CHANNELS 3 Zrotation Xrotation Yrotation
          End Site
          {
            OFFSET -1.1221 -3.69964 12.103
          }
        }
      }
    }
  }
  JOINT lButtock
  {
    OFFSET 8.77824 4.35084 1.2192
    CHANNELS 3 Zrotation Xrotation Yrotation
    JOINT lThigh
    {
      OFFSET 0 -1.70687 -2.19456
      CHANNELS 3 Zrotation Xrotation Yrotation
      JOINT lShin
      {
        OFFSET 0 -36.8199 0.73152
        CHANNELS 3 Zrotation Xrotation Yrotation
        JOINT lFoot
        {
          OFFSET -0.73152 -45.1104 -5.12064
          CHANNELS 3 Zrotation Xrotation Yrotation
          End Site
          {
            OFFSET 1.1221 -3.69964 12.103
          }
        }
      }
    }
  }
}
MOTION
Frames:	4
Frame Time:	0.00833333
146.41 33.9123 -93.8425 -55.0507 146.78 -151.0 3.84763 -19.6583 -23.5679 9.61486 3.19907 -5.74988 -8.44434 -1.42914 -8.05179 28.7969 -21.8753 -7.3369 -0.0 0.0 0.0 -0.0 0.0 0.0 -4.91984e-13 5.37558e-13 -4.99175e-13 80.1327 -36.9706 18.0604 -19.6476 -53.6153 115.063 -0.251318 -14.1312 -2.0277 3.19821e-09 3.69889e-09 -6.27929e-10 5.54515e-09 6.40379e-09 -1.05785e-09 3.19822e-09 3.6989e-09 -6.2794e-10 7.73091 5.47488 0.417314 3.19821e-09 3.6989e-09 -6.27931e-10 2.90554 0.965183 0.102902 3.19822e-09 3.6989e-09 -6.27931e-10 10.2786 0.731801 0.0259123 3.19821e-09 3.6989e-09 -6.27925e-10 2.22167 -0.733487 -0.20892 -4.92086e-13 5.37618e-13 -4.99529e-13 -1.25545 -27.5585 -35.7776 26.2324 -45.3158 -94.9512 0.333459 -16.1844 2.33798 1.73375e-09 -2.30944e-09 2.42538e-09 2.95775e-09 -3.99528e-09 4.2188e-09 1.73375e-09 -2.30944e-09 2.4254e-09 -7.73091 5.47488 -0.417314 1.73375e-09 -2.30944e-09 2.42539e-09 -2.90554 0.965183 -0.102902 1.73374e-09 -2.30944e-09 2.42538e-09 -10.2786 0.731801 -0.0259123 1.73375e-09 -2.30944e-09 2.42537e-09 -2.22167 -0.733487 0.20892 -2.03217e-16 0.0 -3.88251e-19 -11.6036 -23.5769 19.1344 -177.308 52.8526 178.119 0.269274 -3.94764 -0.902401 2.03217e-16 0.0 3.88251e-19 24.078 25.8847 24.994 175.647 73.2558 -177.174 -3.00795 -17.1572 -8.00864
146.36 34.0221 -93.7858 -55.1139 146.811 -150.962 3.9426 -19.9698 -23.5989 9.43596 3.24978 -5.76641 -8.27112 -1.48326 -7.96529 28.4958 -21.6152 -7.34188 -0.0 0.0 0.0 -0.0 0.0 0.0 -6.35679e-13 5.64533e-13 -4.73754e-13 80.294 -36.8165 18.255 -19.6101 -53.6431 115.153 -0.246108 -13.9867 -2.00611 2.8e-09 3.32291e-09 -7.57545e-10 4.86145e-09 5.75092e-09 -1.28886e-09 2.8e-09 3.32291e-09 -7.57551e-10 7.73091 5.47488 0.417314 2.8e-09 3.32291e-09 -7.57545e-10 2.90554 0.965183 0.102902 2.8e-09 3.32291e-09 -7.57545e-10 10.2786 0.731801 0.0259123 2.79999e-09 3.32291e-09 -7.57538e-10 2.22167 -0.733487 -0.20892 -6.3579e-13 5.64564e-13 -4.74101e-13 -0.200852 -27.7236 -37.3047 26.9954 -44.0278 -91.4993 0.331199 -16.1555 2.3333 2.26322e-09 -2.79607e-09 2.55438e-09 3.86928e-09 -4.83554e-09 4.4501e-09 2.26321e-09 -2.79607e-09 2.55439e-09 -7.73091 5.47488 -0.417314 2.26322e-09 -2.79607e-09 2.55438e-09 -2.90554 0.965183 -0.102902 2.26321e-09 -2.79607e-09 2.55437e-09 -10.2786 0.731801 -0.0259123 2.26322e-09 -2.79607e-09 2.55436e-09 -2.22167 -0.733487 0.20892 -2.03217e-16 0.0 -3.88251e-19 -12.174 -23.5959 18.7623 -177.293 53.0563 178.078 0.277853 -3.958 -0.670452 2.03217e-16 0.0 3.88251e-19 23.5336 25.8068 24.9457 175.576 73.6106 -177.099 -2.90704 -16.7111 -7.9124
146.289 34.1428 -93.7651 -55.1801 146.903 -150.766 4.12091 -20.3952 -23.528 9.17911 3.27929 -5.75557 -8.24392 -1.49024 -7.89953 28.4156 -21.3436 -7.308 -0.0 0.0 0.0 -0.0 0.0 0.0 -3.94511e-13 5.18495e-13 -1.51179e-13 80.4133 -36.7223 18.3759 -19.5641 -53.677 115.262 -0.241393 -13.8554 -1.98652 3.35375e-09 2.96175e-09 -8.59967e-10 5.8162e-09 5.12433e-09 -1.45816e-09 3.35376e-09 2.96175e-09 -8.59971e-10 7.73091 5.47488 0.417314 3.35375e-09 2.96175e-09 -8.59966e-10 2.90554 0.965183 0.102902 3.35375e-09 2.96175e-09 -8.59967e-10 10.2786 0.731801 0.0259123 3.35374e-09 2.96175e-09 -8.59959e-10 2.22167 -0.733487 -0.20892 -3.94632e-13 5.1849e-13 -1.51489e-13 1.04414 -28.1807 -39.4454 27.8797 -42.1053 -86.8763 0.314507 -15.7448 2.27081 1.19224e-09 -3.2099e-09 4.54096e-09 1.99948e-09 -5.53308e-09 7.87434e-09 1.19224e-09 -3.20991e-09 4.54098e-09 -7.73091 5.47488 -0.417314 1.19224e-09 -3.20991e-09 4.54096e-09 -2.90554 0.965183 -0.102902 1.19224e-09 -3.20991e-09 4.54096e-09 -10.2786 0.731801 -0.0259123 1.19224e-09 -3.20991e-09 4.54095e-09 -2.22167 -0.733487 0.20892 -2.03217e-16 0.0 -3.88251e-19 -12.8246 -23.6802 18.3872 -177.28 53.2728 178.044 0.297193 -3.97052 -0.394485 2.03217e-16 0.0 3.88251e-19 22.8489 25.6204 24.9466 175.492 74.0214 -177.012 -2.77023 -16.1732 -7.73532
146.233 34.2903 -93.7259 -55.1983 146.99 -150.715 4.36606 -20.9238 -23.3894 8.85747 3.29996 -5.72713 -8.30799 -1.46947 -7.84448 28.4697 -21.0634 -7.24649 -0.0 0.0 0.0 -0.0 0.0 0.0 8.86251e-14 4.26716e-13 3.73641e-13 80.5119 -36.6598 18.4559 -19.513 -53.7145 115.384 -0.2368 -13.7266 -1.96731 4.46757e-09 2.56187e-09 -9.37842e-10 7.73457e-09 4.43095e-09 -1.57625e-09 4.46758e-09 2.56187e-09 -9.37846e-10 7.73091 5.47488 0.417314 4.46758e-09 2.56187e-09 -9.37841e-10 2.90554 0.965183 0.102902 4.46758e-09 2.56187e-09 -9.37842e-10 10.2786 0.731801 0.0259123 4.46757e-09 2.56187e-09 -9.37833e-10 2.22167 -0.733487 -0.20892 8.84951e-14 4.26666e-13 3.73392e-13 2.40284 -28.7736 -42.0718 28.4665 -39.3422 -81.8964 0.287923 -15.0293 2.16292 -8.61932e-10 -3.62991e-09 7.73389e-09 -1.57953e-09 -6.2303e-09 1.33728e-08 -8.61935e-10 -3.62991e-09 7.73391e-09 -7.73091 5.47488 -0.417314 -8.61929e-10 -3.62991e-09 7.7339e-09 -2.90554 0.965183 -0.102902 -8.6194e-10 -3.62991e-09 7.73389e-09 -10.2786 0.731801 -0.0259123 -8.61933e-10 -3.62991e-09 7.73388e-09 -2.22167 -0.733487 0.20892 -2.03217e-16 0.0 -3.88251e-19 -13.5521 -23.8207 18.0043 -177.268 53.5074 178.015 0.325724 -3.98507 -0.0786227 2.03217e-16 0.0 3.88251e-19 22.0404 25.3462 24.9895 175.392 74.4862 -176.91 -2.60877 -15.5469 -7.50638
